<svg width="53" height="71" viewBox="0 0 53 71" fill="none" xmlns="http://www.w3.org/2000/svg">
<rect y="35.5" width="17.7895" height="34.6877" fill="#408A5B"/>
<rect y="35.5" width="17.7895" height="34.6877" fill="#408A5B"/>
<rect y="0.8125" width="17.7895" height="34.6877" fill="#E3B742"/>
<ellipse cx="34.8953" cy="18.1564" rx="17.1053" ry="17.3439" fill="#DE4E2D"/>
<mask id="mask0_408_10988" style="mask-type:alpha" maskUnits="userSpaceOnUse" x="17" y="35" width="36" height="36">
<rect x="17.791" y="35.5" width="34.2105" height="34.6877" fill="#408A5B"/>
</mask>
<g mask="url(#mask0_408_10988)">
<path fill-rule="evenodd" clip-rule="evenodd" d="M52.6867 70.1878C71.9586 70.1878 87.5815 54.347 87.5815 34.8063C87.5815 15.2656 71.9586 -0.575195 52.6867 -0.575195C33.4149 -0.575195 17.792 15.2656 17.792 34.8063C17.792 54.347 33.4149 70.1878 52.6867 70.1878ZM52.6873 52.1501C62.1343 52.1501 69.7926 44.385 69.7926 34.8062C69.7926 25.2275 62.1343 17.4624 52.6873 17.4624C43.2403 17.4624 35.582 25.2275 35.582 34.8062C35.582 44.385 43.2403 52.1501 52.6873 52.1501Z" fill="#5F81CD"/>
</g>
</svg>
