<svg width="244" height="71" viewBox="0 0 244 71" fill="none" xmlns="http://www.w3.org/2000/svg">
<path d="M17.7895 35.5H0V70.1877H17.7895V35.5Z" fill="#408A5B"/>
<path d="M17.7895 35.5H0V70.1877H17.7895V35.5Z" fill="#408A5B"/>
<path d="M17.7895 0.8125H0V35.5002H17.7895V0.8125Z" fill="#E3B742"/>
<path d="M34.8944 35.5003C44.3414 35.5003 51.9997 27.7352 51.9997 18.1564C51.9997 8.57763 44.3414 0.8125 34.8944 0.8125C25.4474 0.8125 17.7891 8.57763 17.7891 18.1564C17.7891 27.7352 25.4474 35.5003 34.8944 35.5003Z" fill="#DE4E2D"/>
<mask id="mask0_1287_1405" style="mask-type:alpha" maskUnits="userSpaceOnUse" x="17" y="35" width="36" height="36">
<path d="M52.0015 35.5H17.791V70.1877H52.0015V35.5Z" fill="#408A5B"/>
</mask>
<g mask="url(#mask0_1287_1405)">
<path fill-rule="evenodd" clip-rule="evenodd" d="M52.6877 70.1878C71.9596 70.1878 87.5825 54.347 87.5825 34.8063C87.5825 15.2656 71.9596 -0.575195 52.6877 -0.575195C33.4159 -0.575195 17.793 15.2656 17.793 34.8063C17.793 54.347 33.4159 70.1878 52.6877 70.1878ZM52.6883 52.1501C62.1353 52.1501 69.7936 44.385 69.7936 34.8062C69.7936 25.2275 62.1353 17.4624 52.6883 17.4624C43.2413 17.4624 35.583 25.2275 35.583 34.8062C35.583 44.385 43.2413 52.1501 52.6883 52.1501Z" fill="#5F81CD"/>
</g>
<path d="M84.6602 50V20.9091H96.1374C98.3344 20.9091 100.21 21.3021 101.763 22.0881C103.325 22.8646 104.513 23.9678 105.328 25.3977C106.152 26.8182 106.564 28.4896 106.564 30.4119C106.564 32.3437 106.147 34.0057 105.314 35.3977C104.48 36.7803 103.273 37.8409 101.692 38.5795C100.12 39.3182 98.216 39.6875 95.9812 39.6875H88.2965V34.7443H94.9869C96.1611 34.7443 97.1365 34.5833 97.913 34.2614C98.6895 33.9394 99.2672 33.4564 99.646 32.8125C100.034 32.1686 100.228 31.3684 100.228 30.4119C100.228 29.446 100.034 28.6316 99.646 27.9688C99.2672 27.3059 98.6848 26.804 97.8988 26.4631C97.1223 26.1127 96.1422 25.9375 94.9585 25.9375H90.8107V50H84.6602ZM100.37 36.7614L107.601 50H100.811L93.7369 36.7614H100.37ZM110.91 50V20.9091H122.388C124.594 20.9091 126.474 21.3305 128.027 22.1733C129.58 23.0066 130.763 24.1667 131.578 25.6534C132.402 27.1307 132.814 28.8352 132.814 30.767C132.814 32.6989 132.397 34.4034 131.564 35.8807C130.73 37.358 129.523 38.5085 127.942 39.3324C126.37 40.1562 124.466 40.5682 122.231 40.5682H114.916V35.6392H121.237C122.421 35.6392 123.396 35.4356 124.163 35.0284C124.94 34.6117 125.517 34.0388 125.896 33.3097C126.284 32.571 126.478 31.7235 126.478 30.767C126.478 29.8011 126.284 28.9583 125.896 28.2386C125.517 27.5095 124.94 26.946 124.163 26.5483C123.387 26.1411 122.402 25.9375 121.209 25.9375H117.061V50H110.91ZM136.809 50V20.9091H148.286C150.483 20.9091 152.358 21.3021 153.911 22.0881C155.473 22.8646 156.662 23.9678 157.476 25.3977C158.3 26.8182 158.712 28.4896 158.712 30.4119C158.712 32.3437 158.295 34.0057 157.462 35.3977C156.629 36.7803 155.421 37.8409 153.84 38.5795C152.268 39.3182 150.365 39.6875 148.13 39.6875H140.445V34.7443H147.135C148.31 34.7443 149.285 34.5833 150.062 34.2614C150.838 33.9394 151.416 33.4564 151.795 32.8125C152.183 32.1686 152.377 31.3684 152.377 30.4119C152.377 29.446 152.183 28.6316 151.795 27.9688C151.416 27.3059 150.833 26.804 150.047 26.4631C149.271 26.1127 148.291 25.9375 147.107 25.9375H142.959V50H136.809ZM152.519 36.7614L159.749 50H152.959L145.885 36.7614H152.519ZM178.84 29.2756C178.726 28.1297 178.239 27.2396 177.377 26.6051C176.515 25.9706 175.346 25.6534 173.868 25.6534C172.865 25.6534 172.017 25.7955 171.326 26.0795C170.634 26.3542 170.104 26.7377 169.735 27.2301C169.375 27.7225 169.195 28.2812 169.195 28.9062C169.176 29.4271 169.285 29.8816 169.522 30.2699C169.768 30.6581 170.104 30.9943 170.53 31.2784C170.956 31.553 171.449 31.7945 172.008 32.0028C172.566 32.2017 173.163 32.3722 173.797 32.5142L176.411 33.1392C177.68 33.4233 178.845 33.8021 179.905 34.2756C180.966 34.7491 181.884 35.3314 182.661 36.0227C183.437 36.714 184.039 37.5284 184.465 38.4659C184.901 39.4034 185.123 40.4782 185.133 41.6903C185.123 43.4706 184.669 45.0142 183.769 46.321C182.879 47.6184 181.591 48.6269 179.905 49.3466C178.229 50.0568 176.207 50.4119 173.84 50.4119C171.491 50.4119 169.446 50.0521 167.704 49.3324C165.971 48.6127 164.616 47.5473 163.641 46.1364C162.675 44.7159 162.169 42.9593 162.121 40.8665H168.073C168.139 41.8419 168.419 42.6562 168.911 43.3097C169.413 43.9536 170.08 44.4413 170.914 44.7727C171.757 45.0947 172.708 45.2557 173.769 45.2557C174.811 45.2557 175.715 45.1042 176.482 44.8011C177.259 44.4981 177.86 44.0767 178.286 43.5369C178.712 42.9972 178.925 42.3769 178.925 41.6761C178.925 41.0227 178.731 40.4735 178.343 40.0284C177.964 39.5833 177.405 39.2045 176.667 38.892C175.937 38.5795 175.043 38.2955 173.982 38.0398L170.814 37.2443C168.362 36.6477 166.425 35.715 165.005 34.446C163.584 33.1771 162.879 31.4678 162.888 29.3182C162.879 27.5568 163.348 26.018 164.295 24.7017C165.251 23.3854 166.562 22.358 168.229 21.6193C169.896 20.8807 171.79 20.5114 173.911 20.5114C176.07 20.5114 177.955 20.8807 179.564 21.6193C181.184 22.358 182.443 23.3854 183.343 24.7017C184.242 26.018 184.706 27.5426 184.735 29.2756H178.84ZM213.602 20.9091V50H208.29L195.633 31.6903H195.42V50H189.27V20.9091H194.667L207.224 39.2045H207.48V20.9091H213.602ZM217.576 25.9801V20.9091H241.468V25.9801H232.562V50H226.482V25.9801H217.576Z" fill="white"/>
</svg>
