<svg width="244" height="71" viewBox="0 0 244 71" fill="none" xmlns="http://www.w3.org/2000/svg">
<rect y="35.5" width="17.7895" height="34.6877" fill="#408A5B"/>
<rect y="35.5" width="17.7895" height="34.6877" fill="#408A5B"/>
<rect y="0.8125" width="17.7895" height="34.6877" fill="#E3B742"/>
<ellipse cx="34.8953" cy="18.1564" rx="17.1053" ry="17.3439" fill="#DE4E2D"/>
<mask id="mask0_408_10999" style="mask-type:alpha" maskUnits="userSpaceOnUse" x="17" y="35" width="36" height="36">
<rect x="17.791" y="35.5" width="34.2105" height="34.6877" fill="#408A5B"/>
</mask>
<g mask="url(#mask0_408_10999)">
<path fill-rule="evenodd" clip-rule="evenodd" d="M52.6867 70.1878C71.9586 70.1878 87.5815 54.347 87.5815 34.8063C87.5815 15.2656 71.9586 -0.575195 52.6867 -0.575195C33.4149 -0.575195 17.792 15.2656 17.792 34.8063C17.792 54.347 33.4149 70.1878 52.6867 70.1878ZM52.6873 52.1501C62.1343 52.1501 69.7926 44.385 69.7926 34.8062C69.7926 25.2275 62.1343 17.4624 52.6873 17.4624C43.2403 17.4624 35.582 25.2275 35.582 34.8062C35.582 44.385 43.2403 52.1501 52.6873 52.1501Z" fill="#5F81CD"/>
</g>
<path d="M84.6593 50V20.9091H96.1365C98.3335 20.9091 100.209 21.3021 101.762 22.0881C103.324 22.8646 104.512 23.9678 105.327 25.3977C106.151 26.8182 106.563 28.4896 106.563 30.4119C106.563 32.3437 106.146 34.0057 105.313 35.3977C104.479 36.7803 103.272 37.8409 101.691 38.5795C100.119 39.3182 98.2151 39.6875 95.9803 39.6875H88.2956V34.7443H94.986C96.1602 34.7443 97.1356 34.5833 97.9121 34.2614C98.6886 33.9394 99.2663 33.4564 99.6451 32.8125C100.033 32.1686 100.227 31.3684 100.227 30.4119C100.227 29.446 100.033 28.6316 99.6451 27.9688C99.2663 27.3059 98.6839 26.804 97.8979 26.4631C97.1214 26.1127 96.1413 25.9375 94.9576 25.9375H90.8098V50H84.6593ZM100.369 36.7614L107.6 50H100.81L93.736 36.7614H100.369ZM110.909 50V20.9091H122.387C124.593 20.9091 126.473 21.3305 128.026 22.1733C129.579 23.0066 130.762 24.1667 131.577 25.6534C132.401 27.1307 132.813 28.8352 132.813 30.767C132.813 32.6989 132.396 34.4034 131.563 35.8807C130.729 37.358 129.522 38.5085 127.941 39.3324C126.369 40.1562 124.465 40.5682 122.23 40.5682H114.915V35.6392H121.236C122.42 35.6392 123.395 35.4356 124.162 35.0284C124.939 34.6117 125.516 34.0388 125.895 33.3097C126.283 32.571 126.477 31.7235 126.477 30.767C126.477 29.8011 126.283 28.9583 125.895 28.2386C125.516 27.5095 124.939 26.946 124.162 26.5483C123.386 26.1411 122.401 25.9375 121.208 25.9375H117.06V50H110.909ZM136.808 50V20.9091H148.285C150.482 20.9091 152.357 21.3021 153.91 22.0881C155.472 22.8646 156.661 23.9678 157.475 25.3977C158.299 26.8182 158.711 28.4896 158.711 30.4119C158.711 32.3437 158.294 34.0057 157.461 35.3977C156.628 36.7803 155.42 37.8409 153.839 38.5795C152.267 39.3182 150.364 39.6875 148.129 39.6875H140.444V34.7443H147.134C148.309 34.7443 149.284 34.5833 150.061 34.2614C150.837 33.9394 151.415 33.4564 151.794 32.8125C152.182 32.1686 152.376 31.3684 152.376 30.4119C152.376 29.446 152.182 28.6316 151.794 27.9688C151.415 27.3059 150.832 26.804 150.046 26.4631C149.27 26.1127 148.29 25.9375 147.106 25.9375H142.958V50H136.808ZM152.518 36.7614L159.748 50H152.958L145.884 36.7614H152.518ZM178.839 29.2756C178.725 28.1297 178.238 27.2396 177.376 26.6051C176.514 25.9706 175.345 25.6534 173.867 25.6534C172.864 25.6534 172.016 25.7955 171.325 26.0795C170.633 26.3542 170.103 26.7377 169.734 27.2301C169.374 27.7225 169.194 28.2812 169.194 28.9062C169.175 29.4271 169.284 29.8816 169.521 30.2699C169.767 30.6581 170.103 30.9943 170.529 31.2784C170.955 31.553 171.448 31.7945 172.007 32.0028C172.565 32.2017 173.162 32.3722 173.796 32.5142L176.41 33.1392C177.679 33.4233 178.844 33.8021 179.904 34.2756C180.965 34.7491 181.883 35.3314 182.66 36.0227C183.436 36.714 184.038 37.5284 184.464 38.4659C184.9 39.4034 185.122 40.4782 185.132 41.6903C185.122 43.4706 184.668 45.0142 183.768 46.321C182.878 47.6184 181.59 48.6269 179.904 49.3466C178.228 50.0568 176.206 50.4119 173.839 50.4119C171.49 50.4119 169.445 50.0521 167.703 49.3324C165.97 48.6127 164.615 47.5473 163.64 46.1364C162.674 44.7159 162.168 42.9593 162.12 40.8665H168.072C168.138 41.8419 168.418 42.6562 168.91 43.3097C169.412 43.9536 170.079 44.4413 170.913 44.7727C171.756 45.0947 172.707 45.2557 173.768 45.2557C174.81 45.2557 175.714 45.1042 176.481 44.8011C177.258 44.4981 177.859 44.0767 178.285 43.5369C178.711 42.9972 178.924 42.3769 178.924 41.6761C178.924 41.0227 178.73 40.4735 178.342 40.0284C177.963 39.5833 177.404 39.2045 176.666 38.892C175.936 38.5795 175.042 38.2955 173.981 38.0398L170.813 37.2443C168.361 36.6477 166.424 35.715 165.004 34.446C163.583 33.1771 162.878 31.4678 162.887 29.3182C162.878 27.5568 163.347 26.018 164.294 24.7017C165.25 23.3854 166.561 22.358 168.228 21.6193C169.895 20.8807 171.789 20.5114 173.91 20.5114C176.069 20.5114 177.954 20.8807 179.563 21.6193C181.183 22.358 182.442 23.3854 183.342 24.7017C184.241 26.018 184.705 27.5426 184.734 29.2756H178.839ZM213.601 20.9091V50H208.289L195.632 31.6903H195.419V50H189.269V20.9091H194.666L207.223 39.2045H207.479V20.9091H213.601ZM217.575 25.9801V20.9091H241.467V25.9801H232.561V50H226.481V25.9801H217.575Z" fill="black"/>
</svg>
